<svg xmlns:xlink="http://www.w3.org/1999/xlink" xmlns="http://www.w3.org/2000/svg" width="63" height="76" viewBox="0 0 63 76" fill="none">
<g clip-path="url(#clip0)">
<path fill-rule="evenodd" clip-rule="evenodd" d="M31.4128 6.62097C30.8192 6.62097 30.335 6.1346 30.335 5.5384V1.08258C30.335 0.486375 30.8192 0 31.4128 0C32.0064 0 32.4907 0.486375 32.4907 1.08258V5.5384C32.4907 6.1346 32.0064 6.62097 31.4128 6.62097ZM36.4061 60.0124H40.3181V60.5464L22.6819 62.3581V60.0124H35.9457C36.1021 60.0462 36.2584 60.0445 36.4061 60.0124ZM37.5583 57.829L40.4905 57.8316C41.4747 53.1718 43.6929 48.8728 46.9421 45.4055C54.3933 36.8547 53.5186 23.8638 45.005 16.3799C41.6153 13.3989 37.3507 11.6416 32.8674 11.3435L32.8221 11.342C32.3695 11.3269 31.9311 11.3122 31.4928 11.3122C20.1831 11.3122 11.0135 20.5219 11.0291 31.8811C11.0291 36.8547 12.8255 41.6714 16.0903 45.4055C19.3395 48.8728 21.5577 53.1561 22.5419 57.8159L25.4754 57.8184L20.558 36.6035C20.4174 36.023 20.7923 35.4425 21.3703 35.3012C21.5734 35.2542 21.7921 35.2699 21.9952 35.3483L26.9002 37.1683L30.9617 34.705C31.3054 34.5011 31.7428 34.5011 32.0864 34.705L36.1479 37.1683L41.0373 35.3483C41.5997 35.1444 42.2245 35.4268 42.4276 35.9916C42.5057 36.1955 42.5213 36.4152 42.4745 36.6192L37.5583 57.829ZM35.3373 57.8271L39.9126 38.094L36.4135 39.3962C36.1011 39.506 35.7574 39.4747 35.4762 39.3021L31.5241 36.9173L27.5719 39.3178C27.2907 39.4903 26.9471 39.5217 26.6346 39.4119L23.1355 38.1097L27.7012 57.8204L35.3373 57.8271ZM42.4739 58.9142V60.3249L42.6155 60.3104C43.2091 60.2319 43.7558 60.6555 43.8339 61.2517C43.912 61.8479 43.4903 62.3971 42.8967 62.4755H42.8342L42.4739 62.5125V64.7811L42.6153 64.7666C43.2089 64.6881 43.7556 65.1117 43.8337 65.7079C43.9118 66.3041 43.4901 66.8533 42.8965 66.9317H42.834L42.4739 66.969V67.6533C42.2708 70.1793 40.1463 72.1091 37.6313 72.0463H36.2918C35.8294 74.2763 33.8861 75.9594 31.5222 76.0001H31.4909C29.1099 76.0001 27.1364 74.3025 26.6731 72.0463H24.697C22.862 72.0463 21.3124 70.8602 20.7512 69.2177L20.4021 69.2538H20.2927C19.6991 69.2852 19.1836 68.8145 19.1524 68.2183C19.1211 67.6221 19.5898 67.1043 20.1834 67.0729L20.5262 67.0377V64.7672L20.2304 64.7976H20.1211C19.5275 64.7976 19.0432 64.3112 19.0432 63.715C19.0432 63.1502 19.465 62.6952 20.0117 62.6324L20.5262 62.5796V58.9299C20.5262 58.8509 20.5347 58.7739 20.5508 58.6996C20.4834 58.5447 20.4329 58.3801 20.4018 58.2081C19.4957 53.9406 17.4338 50.0025 14.4501 46.8332C6.21778 37.3881 7.18629 23.0322 16.5902 14.7639C25.9941 6.49548 40.3031 7.45254 48.551 16.9133C56.0179 25.4798 56.0179 38.2824 48.551 46.8646C45.5674 50.0339 43.5054 53.9719 42.5994 58.2395C42.569 58.4049 42.5201 58.5633 42.455 58.7126C42.4674 58.7779 42.4739 58.8453 42.4739 58.9142ZM23.023 68.9825C23.3556 69.473 23.9 69.8119 24.5408 69.8655H24.697H37.6313C38.9435 69.8969 40.0994 68.9555 40.3181 67.6533V67.1922L23.023 68.9825ZM40.3181 65.0028L22.6819 66.816V64.5457L40.3181 62.734V65.0028ZM34.084 72.0463H28.9291C29.4758 73.4741 31.0692 74.1801 32.4907 73.6467C33.2249 73.3643 33.8029 72.7838 34.084 72.0463ZM17.4944 9.61771C17.6819 9.96288 18.0412 10.1668 18.4317 10.1668C18.6192 10.1668 18.8066 10.1041 18.9785 10.0256C19.494 9.71184 19.6658 9.05289 19.369 8.53513L17.1508 4.6912C16.854 4.17345 16.1979 4.00086 15.6824 4.29896C15.1669 4.59706 14.9794 5.25602 15.2762 5.77378L17.4944 9.61771ZM8.95065 19.753C8.76319 19.753 8.57574 19.7059 8.40391 19.6118L4.57673 17.3839C4.04561 17.1015 3.85816 16.4425 4.13934 15.9091C4.42052 15.3756 5.07661 15.1874 5.60772 15.4698C5.61738 15.4795 5.62703 15.4832 5.64038 15.4883C5.64862 15.4915 5.65828 15.4952 5.67021 15.5011L9.49739 17.7291C10.0129 18.0272 10.1847 18.6861 9.88791 19.2196C9.70046 19.5334 9.34117 19.753 8.95065 19.753ZM1.07786 32.807H5.51426C6.10786 32.807 6.59211 32.3206 6.59211 31.7244C6.59211 31.1282 6.10786 30.6418 5.51426 30.6418H1.07786C0.484255 30.6418 0 31.1282 0 31.7244C0 32.3206 0.484255 32.807 1.07786 32.807ZM5.20149 48.0727C4.60789 48.0727 4.12363 47.5863 4.12363 46.9901C4.12363 46.5979 4.32671 46.237 4.67037 46.0488L8.49755 43.8208C9.01304 43.5227 9.66913 43.6953 9.98155 44.2131C10.2784 44.7308 10.1065 45.3898 9.59103 45.7036L5.76385 47.9315C5.5764 48.0256 5.38894 48.0727 5.20149 48.0727ZM43.4889 9.08426C43.4889 9.68047 43.9731 10.1668 44.5667 10.1668C44.9572 10.1668 45.3009 9.94719 45.4884 9.61771L47.7066 5.77378C48.0034 5.25602 47.8315 4.59706 47.316 4.29896C46.8005 4.00086 46.1288 4.17345 45.832 4.6912L43.6294 8.53513C43.5357 8.70772 43.4889 8.89599 43.4889 9.08426ZM54.0502 19.7531C53.4566 19.7531 52.9723 19.2667 52.9723 18.6705C52.9723 18.2782 53.1754 17.9174 53.5191 17.7291L57.3462 15.5012C57.8461 15.1874 58.5178 15.3443 58.8302 15.8464C59.1427 16.3484 58.9864 17.0231 58.4866 17.3369C58.4769 17.3466 58.4673 17.3503 58.4539 17.3554C58.4457 17.3586 58.436 17.3623 58.4241 17.3682L54.5969 19.5962C54.4407 19.6903 54.2532 19.7531 54.0502 19.7531ZM57.485 32.807H61.9214C62.515 32.807 62.9993 32.3206 62.9993 31.7244C62.9993 31.1282 62.515 30.6418 61.9214 30.6418H57.485C56.8914 30.6418 56.4072 31.1282 56.4072 31.7244C56.4072 32.3206 56.8914 32.807 57.485 32.807ZM57.799 48.0726C57.6115 48.0726 57.424 48.0255 57.2522 47.9314L53.4251 45.7034C52.9096 45.4053 52.7377 44.7464 53.0345 44.2129C53.3313 43.6795 53.9874 43.5226 54.5185 43.8207L58.3457 46.0486C58.8612 46.3467 59.033 47.0057 58.7362 47.5391C58.5488 47.8686 58.1895 48.0726 57.799 48.0726Z" fill="white"/>
</g>
<defs>
<clipPath id="clip0">
<rect width="63" height="76" fill="white"/>
</clipPath>
</defs>
</svg>