<svg xmlns:xlink="http://www.w3.org/1999/xlink" xmlns="http://www.w3.org/2000/svg" fill="none" height="69" viewBox="0 0 46 69" width="46"><g fill="#fff"><path d="m40.0247 28.22c-.1525-.2965-.208-.6334-.1803-.9703l.9982-11.7381c.1109-1.3207-.3882-2.601-1.3864-3.5174-.9843-.9164-2.3291-1.3342-3.6877-1.1455-1.0398.1347-2.0519.4717-2.953.9703-.0693-.0943-.1525-.1887-.2218-.283-1.8855-2.18322-5.2405-2.46623-7.4865-.6469l-8.1241 6.617v-1.4824c0-.1078.0277-.2156.097-.31l1.6914-2.3988c.3189-.4582.2079-1.0916-.2773-1.4016-.4714-.3099-1.123-.2021-1.4418.2696l-1.6914 2.3718c-.305.4313-.4575.9299-.4575 1.442v3.167l-6.47439 5.2694v-9.501c0-1.0916.33273-2.1428.97046-3.0323l5.93373-8.44976c.4852-.6873 1.22-1.15898 2.0795-1.3207.8596-.16172 1.7053.01348 2.4262.49863.707.47168 1.1923 1.18594 1.3586 2.02149.1664.82207-.0138 1.65762-.5129 2.3584l-1.0953 1.5498c-.3188.45821-.2079 1.0916.2773 1.40156.4714.30998 1.123.20218 1.4419-.26953l1.0952-1.5498c.8041-1.13203 1.0952-2.50664.8318-3.86777-.2634-1.36114-1.0536-2.5336-2.2182-3.315239-1.1645-.781641-2.5786-1.064649-3.9789-.808594-1.4141.256055-2.6202 1.024223-3.4243 2.156253l-5.93374 8.44976c-.87341 1.2399-1.33092 2.6819-1.33092 4.1778v11.199l-3.11935 2.5336c-2.232066 1.8193-3.438214 4.5955-3.2025297 7.4256l.6654607 8.1668c.041592.5256.499099.9299 1.039779.9299h.08319c.56841-.0405.99819-.5256.9566-1.0916l-.66546-8.1668c-.18023-2.1832.74864-4.3125 2.46775-5.7141l21.86322-17.7891c1.3725-1.1185 3.4104-.9433 4.5611.3909 1.1507 1.3341.9705 3.3152-.402 4.4337l-11.3822 9.2719c-.707.1617-1.3864.4987-1.9686.9973l-5.5733 4.6898c-.4297.3639-.4713.9973-.097 1.4285.3743.4178 1.0259.4582 1.4695.0944l5.5594-4.7033c.9705-.8221 2.3846-.8221 3.3551-.0135l8.4153 6.9539c.6516.5391 1.0536 1.3072 1.1229 2.1428.0693.8355-.1941 1.6576-.7625 2.291-.4159.4717-.9566.8086-1.5527.9703l-5.8921-4.865c-1.7607-1.4555-4.3117-1.442-6.0724.0269l-5.5593 4.7033c-.4298.3639-.4714.9973-.0971 1.4285.3743.4178 1.0259.4582 1.4696.0944l5.5594-4.7033c.9704-.8221 2.3845-.8221 3.355-.0135l8.4153 6.9539c.6516.539 1.0536 1.3072 1.123 2.1428.0693.8355-.1941 1.6576-.7625 2.291-.5546.6334-1.3448 1.0242-2.2044 1.0916-.8595.0674-1.7052-.1887-2.3568-.7412l-5.2128-4.3125c-.4159-.3369-1.0259-.3235-1.4002.0539l-1.5251 1.5228c-.402.3908-.402 1.0377 0 1.4285.4021.3909 1.0676.3909 1.4696 0l.8734-.849 4.478 3.7061c.9705.7951 2.1766 1.2263 3.4382 1.2263.1387 0 .2912 0 .4298-.0134 1.4141-.1078 2.7034-.7547 3.6185-1.8059.915-1.0512 1.3586-2.3853 1.2477-3.76-.1109-1.3746-.7764-2.6279-1.8577-3.5173l-.7764-.6334c.5129-.2965.9843-.6739 1.3725-1.1186 1.8993-2.1697 1.6221-5.4311-.61-7.2773l-3.7294-3.0862 2.2598-11.1855 1.6775-1.3746c1.0814-.8895 1.7607-2.1293 1.8855-3.5039.0555-.566.0139-1.1186-.1248-1.6442.721-.4177 1.5251-.7008 2.3707-.8086.721-.0943 1.4419.1348 1.9687.62.5268.4851.8041 1.1724.7348 1.8867l-.9982 11.7381c-.0555.6873.0693 1.388.3882 2.0214l1.8439 3.7196c2.3291 4.6898 2.4123 10.0939.2218 14.8377l-1.1923 2.574c-.2357.5121 0 1.1051.5268 1.3342.1387.0539.2773.0943.4298.0943.402 0 .7764-.2156.9427-.593l1.1923-2.574c2.44-5.2963 2.3569-11.3203-.2357-16.5492zm-13.85 1.6306-2.8698-2.3718c-.3604-.2965-.7486-.5391-1.1645-.7143l5.5732-4.5416z"/><path d="m38.5826 53.6636c-.5268-.2291-1.1369 0-1.3725.5121l-2.6619 5.7545c-.0554.1348-.097.2696-.097.4178v7.6547c0 .5525.4713 1.0107 1.0398 1.0107.5684 0 1.0397-.4582 1.0397-1.0107v-7.4391l2.5648-5.5658c.2357-.5121.0139-1.1051-.5129-1.3342z"/><path d="m32.5525 6.28008c.5684 0 1.0398-.45821 1.0398-1.01074v-4.2586c0-.552537-.4714-1.01074-1.0398-1.01074s-1.0398.458203-1.0398 1.01074v4.2586c0 .56601.4714 1.01074 1.0398 1.01074z"/><path d="m36.9888 7.29071c.1663.08086.3327.12129.4991.12129.3604 0 .7209-.18867.915-.51211l2.135-3.71953c.2773-.48516.0971-1.10508-.402-1.37461s-1.1369-.09434-1.4141.39082l-2.1351 3.71953c-.2772.48516-.097 1.0916.4021 1.37461z"/><path d="m45.8482 6.95396c-.305-.47168-.9427-.61992-1.428-.32344l-3.7293 2.25059c-.4852.29648-.6377.9164-.3327 1.38809.194.31.5406.4717.8872.4717.1803 0 .3744-.0539.5407-.1483l3.7294-2.25056c.4852-.29648.6377-.9164.3327-1.38808z"/><path d="m6.12781 55.254c-1.62206-1.9945-2.66184-4.3799-3.00844-6.9-.06932-.5525-.59614-.9434-1.16455-.876-.56842.0674-.970469.5795-.90115 1.132.38819 2.884 1.58047 5.6198 3.43822 7.8973l4.2839 5.2289v6.1858c0 .5525.47137 1.0107 1.03979 1.0107s1.03982-.4582 1.03982-1.0107v-6.5362c0-.2291-.0832-.4447-.2219-.6334z"/></g></svg>