<svg xmlns:xlink="http://www.w3.org/1999/xlink" xmlns="http://www.w3.org/2000/svg" width="190" height="196" viewBox="0 0 190 196" fill="none">
<g clip-path="url(#clip0)">
<path d="M173.914 165.578C181.901 153.23 187.75 138.973 186.738 123.594C185.838 109.45 179.314 95.5301 174.814 81.6103C174.251 80.2632 174.026 78.6916 174.476 77.3446C176.051 73.4156 186.401 77.2323 188.763 73.7523C188.763 73.7523 198.212 63.088 163.227 34.6871C141.179 16.8383 114.518 3.70425 87.2946 0.561061C76.8327 -0.673762 65.921 -0.000221979 57.1465 4.49004C48.3721 8.9803 42.0725 18.0731 42.9725 28.1762C43.7599 37.1567 49.8345 45.4637 54.5592 53.6584C59.2839 61.8532 62.8837 72.0685 58.7214 79.4774C54.1092 87.6722 42.7475 88.7947 32.8481 90.2541C18.6741 92.3869 3.37507 98.4488 0.450266 111.92C-2.24956 124.38 7.08733 137.739 17.0992 147.729C41.1726 171.865 73.1205 188.591 105.968 194.316C117.555 196.337 129.592 197.01 140.279 193.755C155.015 189.377 165.814 178.039 173.914 165.578Z" fill="#F74B53"/>
<path d="M17.9988 110.011C19.5737 95.6426 23.9609 82.2841 29.5855 69.3746C33.2978 60.5063 38.3599 52.1993 44.6595 44.7904C48.0343 41.0859 51.634 37.7182 55.4588 34.575C64.6832 26.9416 75.7075 21.5532 87.4067 18.8591C89.0941 18.2978 90.894 18.1855 92.5814 18.5223C92.2439 18.7468 91.9064 18.8591 91.5689 19.0836C83.6945 22.1145 76.3824 26.268 69.0704 30.4215C64.3457 33.1157 60.071 36.3711 56.3587 40.1878C53.4339 43.1065 50.5091 46.0252 47.8093 49.1684C42.7471 55.118 39.0349 61.8534 35.6601 68.8133C31.2729 77.9061 28.798 87.4479 26.8857 97.3264C25.9857 101.592 25.4233 105.97 25.1983 110.236C25.0858 113.155 23.5109 115.287 21.486 117.084C21.0361 117.533 20.3611 117.645 19.6861 117.42C16.9863 116.859 14.174 116.298 11.4742 115.737C11.2492 115.737 10.9117 115.737 10.6867 115.737C10.6867 115.961 10.5742 116.073 10.6867 116.186C12.5991 121.013 14.2865 126.064 17.5488 130.33C21.1486 134.932 24.6358 139.647 28.1231 144.25C28.5731 144.811 29.023 145.26 29.5855 145.821C32.2853 141.668 34.7602 137.514 37.5725 133.585C40.3848 129.656 43.6471 126.289 46.7969 122.472L42.6346 121.125C41.8472 120.9 40.9473 120.564 40.1598 120.227C38.2474 119.441 36.8975 117.757 36.4475 115.737C35.7726 113.155 35.8851 110.348 36.785 107.766C39.2599 99.2348 41.7347 90.591 45.222 82.3963C48.3718 74.8751 52.084 67.5784 56.3587 60.6185C61.7584 51.9748 69.1829 44.9026 78.0698 39.8511C87.1817 34.4628 97.1936 30.8705 107.655 29.299C111.48 28.7377 115.305 28.5132 119.13 28.7377C123.179 28.8499 127.342 29.299 131.279 29.9725C139.941 31.6563 147.928 35.5853 154.677 41.3104C156.702 42.9943 158.615 44.9026 160.527 46.811C161.089 47.4845 161.652 48.1581 161.989 48.9439C162.439 49.6174 162.327 50.6277 161.539 51.189C161.427 51.189 161.427 51.3012 161.314 51.3012C160.864 50.74 160.414 50.1787 159.852 49.6174C151.64 41.6472 142.303 35.6976 130.829 33.5647C120.48 31.5441 109.793 32.4421 99.8934 36.0343C89.4316 39.7388 80.4322 45.8007 72.1077 52.9851C66.3706 57.9244 62.6583 64.2108 59.621 70.9461C53.9964 83.0699 48.9342 95.4181 44.097 107.879C43.5346 109.226 43.1971 110.573 42.6346 112.144L48.5967 113.828C49.7217 114.165 50.9591 114.502 52.1965 114.838C53.7714 115.287 55.1213 116.073 56.1338 117.308C56.9212 118.094 57.1462 119.216 56.6962 120.227C56.1338 121.798 55.1213 123.258 53.9964 124.493C46.1219 132.912 38.4724 141.331 32.0603 150.873C31.3854 151.883 30.5979 152.781 29.698 153.679C28.5731 154.802 27.7856 154.802 26.5482 153.904C23.2859 151.322 20.4736 148.179 18.3362 144.699C16.5364 141.78 14.7365 138.861 12.7116 136.055C9.11184 131.116 6.97448 125.503 5.0621 119.778C4.04967 116.859 3.26222 113.716 2.36228 110.797C2.36228 110.685 2.24979 110.46 2.24979 110.236C1.91231 107.542 2.36228 106.644 5.28709 106.868C5.96204 106.98 6.637 107.093 7.31196 107.205L17.9988 110.011Z" fill="black"/>
<path d="M116.767 17.512C116.092 17.512 115.305 17.6243 114.63 17.6243C109.905 17.6243 105.181 17.6243 100.456 17.6243C99.6684 17.6243 98.8809 17.512 97.981 17.512C97.531 17.512 97.0811 17.2875 97.0811 16.3895C97.8685 16.1649 98.6559 16.0527 99.5559 15.9404C104.506 15.7159 109.455 15.9404 114.405 16.7262L116.767 17.063V17.512Z" fill="black"/>
<path d="M169.301 105.97C168.964 95.6426 168.626 84.7537 166.377 74.7629C165.927 72.8546 164.802 72.4055 163.789 72.8546C163.677 71.6197 162.664 70.7217 161.427 70.7217C142.978 70.1604 124.642 69.3746 106.193 68.9256C103.156 68.8133 99.6684 68.3643 96.8561 69.3746C94.0438 70.3849 91.4564 72.9668 89.0941 74.7629C81.7821 80.488 74.2451 85.8763 67.608 92.3872C67.2705 91.4891 66.2581 91.0401 65.3581 91.3769C65.1332 91.4891 64.9082 91.6014 64.7957 91.8259L58.7211 96.8775C57.1462 98.2245 57.2587 102.49 59.396 103.276C57.3712 107.542 58.1586 112.032 58.7211 116.747C59.7335 124.38 60.9709 131.902 61.6459 139.647C62.3208 146.495 62.7708 153.455 62.9958 160.302C63.1083 164.119 62.5458 168.609 64.3457 172.089C64.7957 173.661 66.0331 174.896 67.608 175.233C78.8573 177.029 90.669 177.029 102.143 177.253C112.83 177.478 124.867 178.488 135.104 175.008C135.216 174.896 135.441 174.896 135.554 174.784C136.116 175.008 136.678 175.008 137.241 174.671C145.79 170.069 154.115 164.905 161.989 159.292C165.702 156.598 167.839 155.475 168.401 150.761C168.964 146.046 169.076 141.219 169.189 136.504C169.751 126.289 169.751 116.186 169.301 105.97ZM87.8567 82.7331C91.0065 80.6003 94.3812 77.3448 98.0935 76.3345C101.806 75.3242 106.193 76.2223 109.793 76.3345C123.854 76.8958 137.803 77.3448 151.865 77.7938C148.153 80.7125 144.665 83.8557 141.403 87.2234C138.366 90.3666 135.891 94.071 132.854 97.102C129.479 100.582 123.292 99.1226 118.792 99.0103C114.855 98.8981 110.805 98.7858 106.868 98.6736C107.768 97.4387 108.78 96.2039 109.793 94.9691C110.018 94.6323 110.018 94.1833 109.905 93.7343C110.13 93.622 110.355 93.5098 110.693 93.3975C111.368 92.8362 111.48 91.8259 110.918 91.1524L110.805 91.0401C108.78 89.244 105.968 89.5808 103.381 89.693C100.568 89.693 97.6435 90.0298 94.8312 90.7034C94.0438 90.9279 93.8188 92.0504 93.9313 92.9485C92.3564 94.1833 90.5565 95.1936 89.0941 96.4284C88.5316 96.8775 87.8567 97.3265 87.2942 97.7755C80.9946 97.4387 74.695 97.102 68.3954 96.7652C68.6204 96.2039 68.6204 95.6426 68.6204 95.0814C75.2575 91.6014 81.4446 87.1111 87.8567 82.7331ZM100.343 107.766C100.343 108.103 100.343 108.328 100.456 108.664C99.3309 108.664 98.206 108.777 97.0811 108.889C96.8561 107.654 96.6311 106.419 96.4061 105.297L100.343 105.521C100.231 106.307 100.231 106.981 100.343 107.766ZM95.2812 94.6323C96.7436 94.6323 98.206 94.4078 99.5559 94.2956C99.2184 94.6323 98.7685 94.9691 98.431 95.3059C97.306 96.2039 96.2936 97.2142 95.3937 98.2245L92.8063 98.1123L92.9188 98C93.7063 96.9897 94.6062 95.7549 95.2812 94.6323ZM103.043 98.5613L99.8934 98.4491L100.006 98.3368C101.243 96.9897 102.368 95.5304 103.381 94.0711C104.731 94.0711 106.08 94.2956 107.318 94.2956L104.506 97.102C104.056 97.551 103.493 98 103.043 98.5613ZM89.994 110.124C89.6566 109.001 89.0941 107.766 88.8691 106.532C88.7566 105.97 88.6441 105.409 88.6441 104.848L92.6939 105.072C92.6939 106.532 92.8063 107.991 93.0313 109.45C92.0189 109.675 91.0065 109.899 89.994 110.124ZM86.8442 155.588C88.0817 156.261 89.3191 156.598 90.669 156.598C90.444 159.853 90.894 162.997 92.0189 166.028L88.7566 165.803C88.3066 162.323 87.7442 158.955 86.8442 155.588ZM102.931 165.129C102.931 165.691 102.931 166.14 103.043 166.701H102.593C102.143 163.558 101.468 160.415 100.793 157.272C101.693 157.384 102.481 157.496 103.381 157.608C102.931 160.078 102.818 162.548 102.931 165.129ZM98.7685 157.047C98.881 160.19 98.8809 163.333 99.1059 166.477L97.1936 166.364C97.1936 166.364 97.1936 166.252 97.1936 166.14C96.4061 163.895 95.8436 161.649 95.2812 159.292C95.0562 158.394 95.0562 157.496 94.9437 156.598C96.1811 156.822 97.531 156.935 98.7685 157.047ZM107.993 166.701C107.88 166.14 107.88 165.578 107.768 164.905C107.543 162.548 107.43 160.19 106.98 157.833C108.555 157.159 108.33 152.781 106.193 152.557C102.368 152.108 98.431 151.771 94.4937 151.659C91.4564 151.546 88.3066 150.873 85.9443 152.893C85.9443 152.781 85.8318 152.557 85.8318 152.444C85.4943 151.434 84.4819 151.883 84.3694 152.781C84.0319 156.935 84.1444 161.2 84.4819 165.354C79.0822 164.905 73.6826 164.344 68.283 164.119C68.283 163.109 68.3954 161.986 68.3954 161.2C68.283 158.282 68.1705 155.363 67.9455 152.444C67.608 147.393 67.158 142.341 66.5956 137.29C65.3581 126.289 61.9834 114.951 62.0959 103.95C62.0959 103.837 62.0959 103.725 62.0959 103.613C69.9703 103.95 77.8448 104.286 85.7193 104.735C85.7193 105.746 85.7193 106.644 85.8318 107.654C85.9443 109.001 86.2818 110.348 86.7317 111.583C86.3943 112.481 86.7317 113.716 87.7442 113.828L88.4191 113.94C88.5316 113.94 88.6441 113.94 88.7566 113.94C91.0065 114.389 93.3688 114.502 95.6187 114.614C97.981 114.502 100.568 114.839 102.818 113.828C102.931 113.716 103.156 113.604 103.268 113.491C104.168 113.042 104.731 112.032 104.618 110.91C104.393 109.45 104.056 108.103 103.606 106.644C103.493 106.307 103.493 105.97 103.381 105.633C109.68 106.082 115.98 106.532 122.279 106.981C124.192 107.093 126.104 107.43 128.017 107.43C127.904 107.879 127.904 108.328 127.904 108.777C128.691 128.534 130.266 148.179 132.629 167.824C124.754 166.252 116.317 166.701 107.993 166.701ZM163.789 128.983C163.677 133.698 163.339 138.3 163.002 143.015C162.889 145.148 163.114 147.393 161.877 148.965C160.752 150.312 158.39 151.21 156.927 152.108C150.965 155.812 145.003 159.404 138.816 162.772C136.678 144.811 135.329 126.738 134.541 108.552C134.541 107.542 134.204 106.532 133.754 105.633C136.903 103.388 139.041 99.3471 141.516 96.5407C147.478 89.3563 154.452 83.0699 162.327 77.7938H162.439C162.552 85.7641 163.452 93.7343 163.789 101.704C164.127 110.797 164.127 119.89 163.789 128.983Z" fill="black"/>
</g>
<defs>
<clipPath id="clip0">
<rect width="190" height="196" fill="white"/>
</clipPath>
</defs>
</svg>