<svg xmlns:xlink="http://www.w3.org/1999/xlink" xmlns="http://www.w3.org/2000/svg" width="203" height="207" viewBox="0 0 203 207" fill="none">
<g clip-path="url(#clip0)">
<path d="M194.774 81.0578C188.12 74.1618 178.442 70.5324 168.884 69.9275C159.569 69.3226 150.254 71.1373 140.818 70.5324C131.381 69.9275 121.461 65.9351 117.59 57.3454C112.509 46.094 120.372 32.665 116.864 20.9298C114.566 13.4289 107.912 7.86377 100.411 5.56511C92.9106 3.26646 84.9261 3.75038 77.1835 5.44413C61.5775 8.83162 45.3665 19.599 44.5197 35.4476C44.1567 41.8597 46.4553 48.1507 47.6651 54.4418C48.8748 60.7328 48.9958 67.8708 45.0036 72.831C39.8015 79.2431 30.3653 79.606 22.1388 80.0899C13.9124 80.5739 4.11322 82.5096 0.967808 90.1314C-2.78249 98.9631 5.08104 108.279 12.7026 114.086C20.8081 119.53 19.7193 131.265 16.5739 140.46C13.0655 150.622 1.93563 159.454 5.08104 169.858C7.62156 178.206 18.6305 181.11 26.857 178.448C35.0834 175.787 41.4952 169.375 48.27 163.809C55.0447 158.244 63.3921 153.405 71.9815 154.857C80.9338 156.309 87.3456 164.172 91.5798 172.036C95.814 179.9 98.9595 188.853 105.129 195.386C115.654 206.637 133.075 208.694 148.197 205.911C156.424 204.338 164.771 201.314 170.457 195.265C176.143 189.216 178.321 179.295 173.844 172.157C170.457 166.955 164.408 164.293 159.448 160.543C154.488 156.792 150.375 150.138 153.278 144.694C154.73 142.396 156.666 140.581 159.085 139.371C166.949 134.653 175.78 131.749 183.765 127.273C191.749 122.797 199.371 116.385 201.911 107.553C204.815 98.3582 201.427 87.9538 194.774 81.0578Z" fill="#F74B53"/>
<path d="M70.2878 40.0451C70.2878 37.9884 70.1669 36.0527 70.2878 34.1169C71.0137 23.4705 74.0381 13.913 82.1436 6.4121C86.4988 2.29872 92.3057 -0.120922 98.3546 5.98193e-05C101.5 5.98193e-05 104.766 0.121042 107.912 0.363005C111.541 0.846933 114.807 2.29872 117.469 4.71835C120.493 7.37995 123.034 10.7674 124.849 14.3969C126.058 16.9375 126.784 19.5991 126.905 22.3817C127.268 27.4629 127.147 32.6652 126.542 37.7464L130.776 38.1093C136.462 38.7143 142.027 39.1982 147.592 39.6821C148.318 39.6821 148.923 39.6821 149.649 39.5611C151.585 39.3192 153.278 39.5611 154.488 41.2549C154.851 41.8598 155.456 42.2227 155.819 42.8276C156.182 43.3116 156.424 43.9165 156.424 44.5214C156.545 47.183 156.545 49.7236 156.666 52.3852C156.787 55.7727 156.908 59.2812 157.15 62.6687C157.392 66.5401 157.754 70.4115 158.117 74.2829C159.569 87.5909 161.747 100.778 164.408 113.965C166.465 123.885 168.279 133.806 170.336 143.727C171.425 149.171 172.756 154.494 173.844 159.938C174.086 161.148 174.207 162.237 174.086 163.447C173.844 165.261 172.877 166.955 171.304 167.923C167.312 170.464 162.715 171.915 157.996 172.157C152.431 172.52 146.867 172.762 141.302 173.004C132.47 173.367 123.76 173.851 114.928 174.214C108.033 174.456 101.137 174.698 94.2413 174.819C89.1603 174.819 83.9583 174.456 78.7562 174.214C76.3367 174.093 74.0381 174.093 71.6186 173.972L56.1335 173.367C52.3832 173.246 48.7539 173.004 45.0036 172.883C41.2533 172.762 37.624 172.399 33.8737 172.157C30.4863 171.915 28.7926 169.617 28.6716 166.35C28.6716 163.205 28.7926 159.938 29.1555 156.793C29.3975 153.526 29.8814 150.139 30.1234 146.872C30.7282 140.581 31.4541 134.29 32.059 127.999C32.6639 121.708 33.1478 115.175 33.6317 108.642C33.9946 103.682 34.3576 98.6003 34.7205 93.64C35.0834 87.9539 35.4464 82.2677 35.8093 76.5816C36.1722 70.8954 36.5352 65.2093 36.8981 59.5231C37.14 55.1678 37.14 50.8124 38.5918 46.6991C39.3176 44.8843 39.8015 44.4004 41.8582 44.1584C44.1567 43.7955 46.5763 43.1906 48.8748 42.7067C55.0447 41.4968 61.3355 40.65 67.7473 40.166C68.7151 40.166 69.441 40.0451 70.2878 40.0451ZM119.042 37.8674L118.195 44.5214C104.282 44.5214 90.612 44.5214 76.6996 45.1263C76.8206 45.6102 76.8206 45.9732 77.0626 46.0942C77.9094 46.941 78.8772 47.5459 79.7241 48.3928C81.2968 49.8446 81.7807 52.0223 81.0548 53.958C80.5709 55.2888 79.845 56.4986 78.8772 57.7084C77.0626 60.1281 73.9172 61.0959 71.1347 60.1281C67.3844 58.7973 65.3278 54.9258 66.0536 51.1754C66.5375 49.3607 67.9893 47.7879 69.8039 47.304C70.1669 47.183 70.6508 46.941 71.1347 46.82L70.7717 45.3683C64.3599 45.0053 48.9958 45.4892 46.6973 45.9732C46.8182 46.82 47.0602 47.5459 47.1812 48.3928C47.5441 51.6593 47.7861 54.9258 48.028 58.0714C48.7539 65.8142 49.4797 73.4361 48.7539 81.1789C48.27 86.5021 47.6651 91.8253 46.9392 97.0275C46.0924 103.44 45.0036 109.852 44.2777 116.264C43.4309 123.402 42.947 130.66 42.2211 137.798C41.7372 142.88 41.0113 147.961 40.4064 153.163C40.1645 154.857 40.0435 156.43 39.9225 158.123C44.8826 157.881 49.7217 157.76 54.4398 157.639C60.3677 157.518 66.4166 157.518 72.3444 157.639C77.5465 157.639 82.7485 157.881 87.9505 158.002C93.5155 158.244 99.0804 158.365 104.645 158.728C109.484 158.97 114.324 159.333 119.163 159.696C125.816 160.18 132.47 160.906 139.003 161.269C143.358 161.511 147.834 161.632 152.19 161.511C155.819 161.511 159.327 161.148 163.077 160.906C162.956 159.938 162.836 158.97 162.715 158.244C162.352 156.672 161.747 155.22 161.384 153.647C158.117 138.887 155.819 124.006 154.73 109.005C154.367 104.407 154.246 99.8101 153.52 95.3338C151.585 83.3566 150.375 71.3794 149.407 59.2812C149.165 55.8937 148.923 52.5062 148.681 49.1187C148.56 47.062 147.955 46.3361 146.02 45.8522C144.931 45.6102 143.963 45.4892 142.874 45.4892C139.366 45.4892 135.858 45.8522 132.349 44.8843C129.93 44.2794 127.631 44.6424 125.333 44.5214C124.728 45.4892 124.607 46.0942 125.695 46.5781C126.542 47.183 127.51 47.7879 128.236 48.5138C129.93 49.8446 130.656 52.2642 129.809 54.3209C128.962 57.2245 127.268 59.7651 124.849 61.4589C122.187 63.5155 118.437 63.5155 115.775 61.2169C115.533 61.0959 115.412 60.733 115.17 60.733C113.356 60.612 113.235 59.1602 112.993 57.9504C112.388 55.1678 112.63 52.3852 113.477 49.7236C114.082 47.5459 115.291 45.8522 117.953 45.8522C118.558 45.9732 119.042 45.4892 119.163 44.8843C119.526 42.2227 120.01 39.4401 120.251 36.6576C120.735 32.5442 120.856 28.4308 120.493 24.3174C120.251 21.6558 119.889 19.1152 117.953 16.9375C115.533 13.913 112.388 11.6143 108.759 10.2835C103.194 8.46879 97.5077 8.71076 91.8218 9.55763C86.3778 10.2835 83.3534 14.034 80.9338 18.2683C79.966 20.0831 79.3611 22.0188 79.1192 23.9545C78.2723 28.0679 77.7884 32.1812 77.0626 36.4156C76.9416 37.2625 76.9416 38.2303 76.8206 39.1982C91.0959 38.2303 105.129 37.6254 119.042 37.8674ZM164.287 164.293C163.803 164.293 163.561 164.293 163.319 164.293C159.448 164.656 155.577 165.261 151.706 165.261C145.899 165.382 140.092 165.382 134.406 165.019C124.97 164.535 115.533 163.689 106.097 162.963C99.5643 162.479 92.9106 161.995 86.3778 161.511C82.0226 161.148 77.6675 160.906 73.1913 160.664C66.2956 160.301 59.2789 159.938 52.3832 159.575C49.7217 159.454 46.9392 159.333 44.2777 159.333C42.826 159.333 41.3743 159.333 39.9225 159.333L39.6806 161.874C40.5274 161.874 41.2533 161.874 41.8582 161.874C46.0924 161.995 50.3266 161.995 54.4398 162.116C60.2467 162.358 66.0536 162.721 71.8605 162.963C77.0626 163.205 82.2646 163.447 87.4666 163.81C96.9029 164.414 106.339 165.019 115.775 165.624C122.913 165.987 130.051 166.35 137.188 166.713C144.81 167.076 152.552 167.076 160.174 166.592C161.626 166.471 162.956 166.35 164.529 166.229L164.287 164.293ZM124.728 51.5383C123.881 52.8691 123.155 54.1999 122.187 55.4098C121.098 56.8615 120.251 56.6196 119.405 55.1678C119.284 54.8048 119.163 54.4419 119.042 54.079C118.8 52.7482 118.558 51.4174 118.316 50.0866C117.469 50.2075 116.743 50.9334 116.501 51.7803C115.896 53.958 116.38 56.2566 117.832 57.9504C118.8 59.1602 120.493 59.4022 121.703 58.6763C123.639 57.7084 124.97 55.8937 125.574 53.837C125.937 52.9901 125.574 52.0223 124.728 51.5383C124.849 51.5383 124.849 51.5383 124.728 51.5383ZM71.4976 49.6026C70.6508 50.0866 69.8039 50.4495 69.0781 50.9334C68.7151 51.1754 68.4732 51.5383 68.3522 51.9013C67.9893 53.474 68.5942 55.0468 69.8039 56.0147C70.7717 57.1035 72.3445 57.5874 73.7962 56.9825C75.3689 56.3776 76.5787 55.1678 77.1835 53.595C77.6675 52.7482 77.3045 51.7803 76.5787 51.1754C75.9738 52.0223 75.4899 52.7482 75.006 53.3531C74.1591 54.3209 73.6752 54.3209 72.9493 53.2321C72.7074 52.7482 72.4654 52.2642 72.2235 51.7803C71.9815 51.1754 71.8605 50.4495 71.4976 49.6026Z" fill="black"/>
<path d="M118.437 104.77C119.284 104.891 120.01 105.496 120.01 106.343C120.735 109.005 121.461 111.787 121.945 114.57C122.066 117.111 121.582 119.772 120.372 122.071C117.711 128.725 112.267 133.927 105.492 136.226C102.105 137.556 98.2336 137.677 94.7253 136.71C89.1603 135.137 84.0792 132.838 80.4499 127.999C78.0304 124.611 76.4577 120.619 75.8528 116.506C75.2479 113.118 75.2479 109.61 75.9738 106.222C76.0947 105.738 76.2157 105.254 76.4577 104.77C76.9416 103.561 78.1514 102.956 79.3611 103.198C80.5709 103.561 81.2968 104.77 81.1758 105.98C81.0548 107.553 80.8129 109.126 80.6919 110.698C80.208 115.296 81.0548 120.014 82.9904 124.248C83.9583 126.547 85.7729 128.483 87.9505 129.693C90.1281 130.781 92.3057 131.87 94.6043 132.717C97.2658 133.685 100.29 133.685 102.831 132.475C110.331 129.814 115.896 123.402 117.469 115.538C117.832 113.602 117.953 111.666 117.953 109.731C117.953 108.642 117.953 107.432 117.953 106.343C118.195 105.98 118.316 105.375 118.437 104.77Z" fill="black"/>
<path d="M86.9827 88.0748C88.6764 87.9538 90.0072 88.0748 91.096 89.2846C91.7009 89.8895 91.9428 90.3734 91.7009 91.0993C91.096 92.9141 90.3701 94.7288 89.6442 96.5435C89.0393 97.6324 87.8296 97.9953 86.7408 97.3904C86.4988 97.2694 86.1359 97.0274 86.0149 96.7855C84.8051 94.8498 84.0793 92.6721 84.0793 90.4944C83.9583 88.9217 84.8051 88.3168 86.3778 88.3168L86.9827 88.0748Z" fill="black"/>
<path d="M114.203 88.8007C115.412 88.5587 116.743 89.0426 117.59 90.0105C117.953 90.3734 118.195 90.9783 118.195 91.4623C117.953 92.9141 117.59 94.3658 116.985 95.6966C116.259 97.3904 114.807 97.5114 113.477 96.1806C112.146 94.6078 111.42 92.6721 111.42 90.7364C111.299 89.5266 112.025 88.9217 113.235 88.9217C113.598 88.8007 113.84 88.8007 114.203 88.8007Z" fill="black"/>
</g>
<defs>
<clipPath id="clip0">
<rect width="203" height="207" fill="white"/>
</clipPath>
</defs>
</svg>