<svg xmlns:xlink="http://www.w3.org/1999/xlink" xmlns="http://www.w3.org/2000/svg" width="224" height="192" viewBox="0 0 224 192" fill="none">
<g clip-path="url(#clip0)">
<path d="M109.598 62.1803L116.673 52.3273C119.209 48.7323 122.013 45.2705 124.95 41.8086C128.42 37.8142 131.891 33.8197 135.495 29.9584C138.032 27.2954 140.435 24.4993 143.105 21.9695C146.041 19.0402 149.245 16.2441 152.583 13.7143C155.386 11.5839 158.323 9.58669 161.393 7.72261C166.199 4.66019 171.672 2.52982 177.279 1.33148C180.616 0.532594 183.953 0.133148 187.424 0C191.028 0.133148 194.499 0.665742 197.97 1.59778C206.914 3.99445 213.188 9.45354 217.86 17.1761C220.397 21.3037 222.132 25.8308 223.066 30.6241C224.268 37.681 224.268 44.871 222.933 51.9279C221.465 58.9847 220.53 66.3079 217.727 72.9653C215.591 78.2913 214.256 83.7504 212.254 89.0763C210.652 93.2039 208.516 97.1983 206.647 101.193C204.511 105.72 202.242 110.114 199.572 114.374C197.302 118.103 195.567 121.964 193.298 125.692C191.429 128.888 189.293 132.083 187.29 135.279C184.754 139.406 182.351 143.667 179.548 147.662C176.211 152.455 173.007 157.248 169.536 162.042C164.597 168.699 159.257 175.09 153.917 181.481C152.449 183.212 151.248 184.943 150.046 186.807C146.442 191.867 141.636 192.932 135.896 191.201C130.823 189.47 126.018 187.34 121.345 184.81C116.273 182.28 111.333 179.617 106.528 176.821C102.523 174.558 98.5181 172.56 94.6469 170.031C91.3096 168.033 87.9723 166.169 84.6349 164.172C80.7637 161.908 76.8924 159.512 73.0211 157.115C68.2154 154.186 63.5432 151.39 58.7374 148.46C53.7982 145.398 48.859 142.069 43.9198 139.007C39.3811 136.344 35.1093 133.415 30.7041 130.485C27.6338 128.488 24.6969 126.225 21.7601 123.961C18.2893 121.431 15.0855 118.635 12.1487 115.44C7.47643 110.513 4.00563 104.522 2.00325 97.8641C0.935308 94.4022 0.534831 90.8072 0.401339 87.0791C0.401339 85.0818 0.134354 83.0846 0.000862106 81.0874C-0.13263 76.0277 0.801816 70.9681 2.53721 66.3079C4.67309 60.7157 7.8769 55.656 11.8817 51.129C16.9544 45.4036 23.2285 40.8766 30.4371 38.2136C38.0462 35.4175 46.1892 34.6186 54.1987 35.8169C61.5408 36.749 68.7494 38.613 75.691 41.1429C83.567 44.3384 91.0426 48.1997 97.9842 52.8599C102.256 56.0555 106.127 58.9848 109.598 62.1803Z" fill="#F74B53"/>
<path d="M83.5662 123.695C84.3672 124.094 85.1681 124.361 85.9691 124.76C92.6437 128.488 98.9178 132.749 104.925 137.542C109.197 140.605 113.735 143.401 118.408 145.797C121.478 147.395 124.548 148.727 127.619 150.191C128.42 150.591 129.354 150.724 130.155 150.99C134.56 152.455 137.764 150.591 140.834 147.662C141.769 146.863 142.036 145.664 141.635 144.466L140.434 143.933C138.832 143.135 137.097 142.336 135.495 141.27C128.153 136.477 120.544 131.95 113.869 126.225C110.532 123.295 107.461 119.967 104.257 116.771C103.857 116.239 103.323 115.573 103.056 114.907C104.124 114.907 105.192 115.307 105.993 115.972C110.932 118.768 115.738 121.831 120.143 125.293C125.883 129.687 132.157 133.548 138.699 136.743C141.235 138.208 144.172 138.741 147.109 138.208C150.179 137.942 152.448 135.412 152.715 132.483C152.715 131.817 152.582 131.151 152.315 130.485C151.247 128.621 149.645 127.024 147.776 126.092C144.572 124.227 141.368 122.363 138.165 120.632C132.691 117.437 127.485 113.709 122.679 109.581C120.01 107.451 117.34 105.32 114.937 103.057C112.534 100.793 109.998 98.1304 107.328 95.4674C107.061 95.6005 106.794 95.7337 106.66 96C102.923 100.394 98.5173 103.989 93.4446 106.652C90.3743 108.383 86.9035 109.049 83.4327 108.25C81.5638 107.85 79.8284 106.785 78.627 105.187C76.4911 102.258 75.2897 98.7961 75.1562 95.2011C75.1562 92.5381 75.9571 89.8752 77.4256 87.4785C79.0275 84.5492 80.7629 81.7531 82.4983 78.8238C84.7676 74.8294 86.9035 70.8349 89.3064 66.9736C91.5757 63.5118 94.3791 60.3162 96.9154 56.9875L97.7164 55.9223C97.1824 55.656 96.9154 55.5229 96.515 55.3897C95.8475 55.2566 95.18 54.9903 94.5126 54.8571C89.8403 52.5936 85.0346 50.3301 80.3624 47.9334C76.6246 46.0693 73.5543 43.1401 70.484 40.3439C68.3481 38.3467 66.3457 36.3495 64.2098 34.2191C63.8093 33.8197 63.5424 33.2871 63.1419 32.7545C64.7438 32.355 66.4792 32.355 68.0811 32.8876C71.5519 33.8197 75.1562 34.6186 78.7605 35.1512C83.8332 35.6838 87.4375 38.613 91.0418 41.5423C94.913 44.6047 98.2504 48.1997 100.92 52.1942C101.588 51.5284 102.122 50.9958 102.656 50.3301C105.325 46.8682 108.129 43.5395 111.066 40.3439C114.536 37.2815 118.141 34.3523 121.878 31.6893C122.412 31.2899 122.946 31.0236 123.614 30.8904C127.352 30.0915 131.223 29.4258 134.961 28.76C135.628 28.6269 136.162 28.6269 136.563 27.9611C137.497 26.4965 139.099 25.6976 140.834 25.8308C143.104 25.8308 145.24 25.8308 147.509 26.0971C150.179 26.3634 152.715 26.6297 155.252 27.0291C158.589 27.6948 161.659 29.2926 164.329 31.423C164.596 31.5562 164.729 31.8225 164.863 32.0887C164.996 32.355 165.13 32.6213 165.263 33.0208C164.863 33.2871 164.596 33.5534 164.062 33.8197C160.725 34.7517 157.254 35.8169 153.65 35.4175C150.312 35.2843 147.109 34.8849 143.771 34.086C142.837 33.8197 141.902 33.8197 140.834 33.8197C137.898 33.8197 137.898 33.8197 136.162 31.5562C134.827 33.1539 133.492 34.8849 132.157 36.4826C130.822 38.3467 128.82 39.8114 126.551 40.4771C126.284 40.6102 126.017 40.7434 125.883 40.8765C121.745 43.939 117.206 46.7351 113.602 50.4632C111.867 52.1942 110.532 54.3245 108.93 56.1886C105.459 60.4494 101.988 64.8433 98.3838 69.104C95.5805 72.8322 93.0442 76.6935 90.7748 80.6879C89.0394 83.484 87.1705 86.147 85.4351 88.81C84.5006 90.2746 83.5662 91.7392 82.6318 93.2039C81.0299 96 81.6973 98.5298 83.4327 101.06C85.4351 100.394 87.304 99.1956 88.9059 97.7309C92.3767 94.9348 95.714 91.7392 98.5173 88.2774C99.9858 86.4133 101.187 84.2829 102.522 82.2857C103.59 80.6879 104.791 79.0901 105.993 77.6255C108.663 74.4299 112.267 73.3648 116.138 73.0985C120.41 72.699 124.548 73.0985 128.687 74.2968C130.555 74.9625 132.558 75.362 134.56 75.7614C137.23 76.1609 139.9 75.7614 142.303 74.6962C145.507 73.4979 148.577 71.6338 151.247 69.5035C151.514 69.2372 151.914 68.9709 152.315 68.8377C152.982 68.5714 153.783 68.8377 154.05 69.5035C154.184 69.7698 154.184 69.9029 154.184 70.1692C154.05 70.9681 153.783 71.6338 153.516 72.2996C152.181 74.5631 150.446 76.4272 148.443 77.8918C144.706 80.8211 140.968 83.3509 136.162 84.0166C134.427 84.1498 132.691 84.2829 130.956 84.2829C128.42 84.2829 126.017 84.2829 123.48 84.2829C118.274 84.2829 114.136 86.5465 110.665 90.4078C111.066 90.9404 111.466 91.4729 111.867 92.0055C114.002 94.4022 116.405 96.3994 119.075 98.1304C127.619 103.456 135.895 109.182 144.973 113.442C149.111 115.173 152.982 117.304 156.586 120.1C157.254 116.372 160.191 114.508 162.46 112.244C167.399 107.451 171.938 102.125 176.076 96.5326C180.215 90.8072 183.285 84.4161 185.287 77.6255C185.688 75.8946 185.955 74.0305 186.088 72.2996C186.088 70.8349 186.489 69.3703 186.889 67.9057C188.224 68.172 188.224 69.2372 188.358 70.036C189.159 73.7642 189.159 77.6255 188.358 81.3537C185.955 90.8072 181.816 99.595 176.076 107.451C172.205 112.91 168.067 118.103 164.062 123.429C163.261 124.361 162.327 125.293 161.392 126.092C161.793 127.689 161.926 129.287 162.06 131.018C162.06 136.211 159.657 140.472 156.053 143.933C154.584 145.265 152.849 145.931 150.846 145.797H147.909C148.043 150.325 145.907 153.653 142.97 156.583C139.9 159.645 135.895 160.178 131.89 159.911C131.223 161.11 130.689 162.308 130.022 163.506C126.15 170.563 115.604 173.892 108.262 169.764C106.794 168.965 105.192 168.166 103.724 167.234C103.056 166.702 102.255 166.569 101.454 166.968C98.5173 168.166 95.18 168.3 92.1097 167.234C82.8987 164.571 74.2217 159.911 67.0132 153.653C64.2098 151.257 61.273 149.126 58.4697 146.863C55.3993 144.2 52.4625 141.404 49.3922 138.741C47.7903 137.542 46.1884 136.344 44.8535 134.879C41.3827 130.352 37.1109 126.757 33.5066 122.497C29.5018 117.969 26.031 113.043 22.5602 108.116C16.9536 100.261 14.2837 91.4729 12.4148 82.1526C11.3469 76.5603 12.9488 71.2344 15.6186 66.1747C16.1526 64.8433 17.621 64.0444 19.0894 64.1775C20.6914 68.4383 22.1598 72.8322 23.7617 77.0929C24.0287 77.7587 24.1622 78.5575 24.1622 79.3564C24.5626 82.9514 24.9631 86.6796 25.4971 90.2746C26.298 94.2691 27.7664 97.9972 29.9023 101.326C32.7057 106.386 36.043 111.179 39.9142 115.573C42.4506 118.369 45.2539 120.899 48.0573 123.562C48.3242 123.828 48.8582 124.094 48.9917 124.361C50.1931 126.757 52.4625 127.822 54.3314 129.42C61.4065 135.279 68.6151 140.871 75.0227 147.262C80.7629 153.121 87.571 158.047 94.913 161.775C95.714 162.175 96.6484 162.441 97.5829 162.707L97.8499 162.308C97.3159 161.775 96.6484 161.243 96.1145 160.577C93.0442 157.648 89.8403 154.852 86.9035 151.922C82.2313 147.262 78.2265 142.069 74.7557 136.477C74.0883 135.279 73.5543 134.08 72.7533 132.483C73.5543 132.483 73.9548 132.35 74.3552 132.483C76.4911 133.548 78.7605 134.48 80.8964 135.811C86.503 139.14 91.7092 143.135 96.248 147.795C99.9857 151.789 103.991 155.517 108.262 158.846C110.265 160.311 112.401 161.509 114.67 162.84C116.272 163.773 118.274 163.773 119.876 162.974C121.478 162.175 123.213 161.11 124.682 160.178C125.216 159.645 125.883 159.245 126.284 158.58C111.6 153.387 100.253 144.067 90.1073 133.015C87.571 130.219 84.7676 127.556 83.1657 124.094L83.5662 123.695Z" fill="black"/>
</g>
<defs>
<clipPath id="clip0">
<rect width="224" height="192" fill="white"/>
</clipPath>
</defs>
</svg>