<svg xmlns:xlink="http://www.w3.org/1999/xlink" xmlns="http://www.w3.org/2000/svg" width="161" height="192" viewBox="0 0 161 192" fill="none">
<g clip-path="url(#clip0)">
<path d="M158.481 20.5182C155.733 11.9212 149.664 3.78269 141.075 1.03164C131.113 -2.17791 120.235 2.17791 112.105 8.71164C96.8748 20.8621 88.5156 39.4316 82.2176 57.7719C75.9196 76.1122 71.2247 95.3695 61.2624 111.99C56.9111 119.097 49.5825 126.433 41.5669 124.256C34.5818 122.307 30.6885 113.824 23.4744 112.678C16.2603 111.532 10.6494 118.295 7.32859 124.714C1.83215 135.604 0.229018 144.774 0 156.924C0 156.924 0 178.359 19.123 185.008C55.0789 197.617 92.867 190.624 130.426 183.861C136.953 182.715 143.824 181.11 148.633 176.411C154.587 170.565 155.618 161.509 156.191 153.142C158.824 117.951 160.427 82.646 161 47.3409C161.115 38.2854 161.229 29.1152 158.481 20.5182Z" fill="#F74B53"/>
<path d="M121.723 42.2973C125.731 41.9534 129.739 41.9534 133.747 42.4119C135.464 42.6412 135.922 43.0997 135.922 44.8191C135.808 47.5701 135.579 50.3212 135.235 52.9576C134.663 58.8036 134.548 64.6496 134.548 70.3809C134.548 81.4997 134.548 92.7331 134.434 103.852C134.434 108.437 134.09 113.022 133.861 117.607C133.747 119.9 133.747 122.192 133.747 124.37C133.632 128.497 133.518 132.623 133.403 136.75C133.174 141.679 132.831 146.608 132.487 151.537C132.373 152.11 132.258 152.798 132.144 153.371H117.601C116.799 149.932 116.57 146.264 116.799 142.71C116.914 139.386 117.028 136.177 117.257 132.853C117.486 128.038 117.944 123.224 118.173 118.41C118.403 114.627 118.517 110.959 118.517 107.176C118.746 99.1522 118.746 91.243 118.975 83.2191C119.09 77.9463 119.319 72.7881 119.662 67.5152C120.12 60.7522 120.693 53.8746 121.265 47.1116C121.38 46.08 121.38 44.9337 121.38 43.9021C121.494 43.4436 121.494 42.8705 121.723 42.2973Z" fill="black"/>
<path d="M93.6686 60.2937C93.7831 61.2107 93.8976 61.6693 93.8976 62.2424C93.8976 68.203 93.8976 74.2782 93.7831 80.3534C93.6686 85.1678 93.325 90.0967 93.096 95.0257C92.9815 97.089 92.867 99.1522 92.867 101.216C92.867 111.073 92.867 121.046 92.867 130.904C92.867 135.489 92.638 140.189 92.409 144.774C92.2945 147.869 91.7219 150.964 90.6913 153.944C85.8819 154.173 80.958 154.288 75.8051 154.288C75.4616 152.798 75.2326 151.422 75.1181 149.932C74.8891 145.232 74.66 140.533 74.66 135.833C74.66 129.872 74.8891 123.797 75.0036 117.836C75.0036 111.073 75.4616 104.425 76.1487 97.6621C76.7212 91.5869 77.2937 85.5116 78.0953 79.4364C78.7824 74.049 79.9275 68.6615 80.8435 63.274C80.8435 63.1594 80.958 62.9302 80.958 62.7009C81.5306 60.523 81.7596 60.4084 84.0498 60.4084L93.6686 60.2937Z" fill="black"/>
<path d="M110.272 153.6H99.2795C99.0505 151.995 98.5924 150.505 98.4779 148.9C97.9054 143.169 97.3329 137.438 97.1038 131.706C96.8748 126.204 96.9893 120.702 96.9893 115.315C96.9893 111.303 96.9893 107.291 97.1038 103.393C97.2183 96.8597 97.3328 90.326 97.4474 83.7922C97.5619 78.1755 97.9054 72.4442 98.1344 66.8275C98.2489 64.8788 98.4779 62.9301 98.5924 60.7522L113.937 61.5546C114.051 62.5863 114.051 63.3887 114.166 64.191C114.28 68.5469 114.509 73.0173 114.509 77.3731C114.624 83.7922 114.738 90.0967 114.738 96.5158C114.738 101.445 114.624 106.374 114.395 111.303C114.051 116.919 113.479 122.536 113.135 128.153C112.906 131.248 112.906 134.343 112.563 137.438C112.105 141.908 111.303 146.264 110.616 150.62C110.616 151.422 110.501 152.339 110.272 153.6Z" fill="black"/>
<path d="M152.297 159.102C151.954 160.019 151.152 160.707 150.122 160.936C145.77 162.426 141.19 163.573 136.61 164.26C127.563 165.521 118.517 166.667 109.356 167.699C104.203 168.272 98.936 168.616 93.6685 168.96C88.1721 169.304 82.6757 169.762 77.1792 169.992C71.2247 170.336 65.1557 170.565 59.2013 170.679C54.2774 170.794 49.3535 171.023 44.4296 171.023C37.101 171.023 29.6579 171.023 22.3293 171.023C19.4665 171.023 16.6038 170.106 14.3136 168.387C13.7411 168.043 13.5121 167.355 13.7411 166.667C14.0846 164.375 15.0007 162.312 16.4893 160.592C16.9473 160.134 17.6344 159.904 18.2069 159.904C21.1842 159.904 24.1614 159.904 27.1387 159.79C33.7802 159.561 40.3072 159.331 46.9488 159.102C51.8727 158.873 56.9111 158.529 61.9495 158.414C69.2781 158.185 76.6067 157.956 83.9353 157.727C90.3478 157.497 96.7603 157.153 103.173 157.039C109.356 156.924 115.54 157.153 121.723 157.153C123.326 157.153 124.93 157.153 126.533 157.153C131.686 157.383 136.839 157.727 141.991 157.956C144.625 158.07 147.373 158.07 150.007 158.185C150.809 157.841 151.725 158.3 152.297 159.102Z" fill="black"/>
<path d="M69.0491 154.173H55.8805C54.8499 151.078 54.2774 147.869 54.5064 144.659C54.3919 141.22 54.3919 137.781 54.2774 134.343C54.1629 131.248 54.2774 128.038 54.0484 124.943C53.4758 114.971 53.4758 104.998 53.4758 94.911C53.4758 90.0967 53.4758 85.2824 53.5903 80.4681C53.5903 78.9779 53.8194 77.4878 53.9339 75.883L67.446 76.5707C67.675 78.0609 67.904 79.6657 68.0185 81.2704C68.362 85.7409 68.4765 90.2113 68.9346 94.5672C69.3926 98.923 68.8201 103.279 68.8201 107.52C68.8201 113.939 68.9346 120.358 68.9346 126.777C68.9346 133.884 68.8201 140.991 68.8201 147.983C68.8201 148.327 68.8201 148.556 68.8201 148.9C68.133 150.849 68.2475 152.568 69.0491 154.173Z" fill="black"/>
<path d="M32.1771 91.243H45.8037C46.4908 93.6501 46.9488 96.1719 47.1778 98.6937C47.8649 104.884 48.0939 111.073 47.9794 117.263C47.9794 121.39 48.0939 125.631 48.2084 129.758C48.3229 135.03 47.7504 140.303 46.2618 145.461C45.8037 147.296 45.6892 149.244 45.3457 151.078C45.1167 152.224 44.7731 153.256 44.4296 154.402H30.345C30.2305 153.944 30.2305 153.485 30.2305 153.027C30.6885 133.54 31.1465 114.054 31.7191 94.5672C32.0626 93.5355 32.1771 92.3892 32.1771 91.243Z" fill="black"/>
</g>
<defs>
<clipPath id="clip0">
<rect width="161" height="192" fill="white"/>
</clipPath>
</defs>
</svg>