<svg xmlns:xlink="http://www.w3.org/1999/xlink" xmlns="http://www.w3.org/2000/svg" width="273" height="201" viewBox="0 0 273 201" fill="none">
<path d="M246.918 102.862C245.846 92.2663 235.393 84.8895 224.941 81.4022C214.489 77.915 203.233 77.2444 193.183 72.6842C190.636 71.6112 188.09 70.0017 187.286 67.4534C186.884 65.8439 186.884 64.2344 187.286 62.6249C188.894 54.9799 193.719 48.1396 194.657 40.3604C195.997 29.7646 189.296 19.1689 180.05 13.4015C170.804 7.63422 159.28 5.75649 148.158 6.02474L141.859 7.09773C118.811 10.9873 95.7625 16.7546 75.2601 27.8869C54.7577 39.0192 37.2033 56.187 29.6992 77.5126C22.195 98.8383 25.9471 124.724 42.4295 140.685C49.3976 147.391 57.9738 152.22 66.952 156.109C111.441 175.423 165.444 172.875 207.789 149.537C221.591 141.892 234.589 131.833 242.362 118.42C245.31 113.86 247.454 108.361 246.918 102.862Z" fill="#F74B53"/>
<path d="M71.3541 96.6124C75.9897 96.1161 80.2941 95.4544 84.7641 95.2889C92.214 94.7926 99.664 94.6272 107.114 94.1309L128.802 93.1383C135.589 92.8075 142.543 92.4766 149.33 92.1457C156.449 91.8149 163.568 91.484 170.687 91.1531C173.667 90.9877 175.157 92.642 174.826 95.4544C174.495 97.9359 174.329 100.417 174.164 103.064C174.826 102.733 175.488 102.403 175.985 102.072C185.421 96.1161 195.355 90.6568 205.619 86.0247C209.592 84.205 213.235 81.7235 217.208 79.4075C211.414 75.4371 205.454 71.6322 199.825 67.6618C194.196 63.6914 188.898 59.3902 183.6 54.9235C178.303 50.4569 173.005 45.9902 167.376 41.1927C167.045 43.1778 166.714 44.6667 166.548 46.1556C165.72 51.4494 165.058 56.9087 164.23 62.2025C164.23 64.0223 163.568 66.0075 162.409 67.4964H158.602C154.628 67.4964 150.655 67.6618 146.847 67.3309C141.88 67.0001 136.914 66.1729 132.113 65.3457C131.285 65.1803 130.457 64.8494 129.961 64.1877C139.563 61.3754 149.33 59.5556 159.264 58.7285C159.429 57.2396 159.595 55.7507 159.76 54.4272C160.257 48.6371 160.588 43.0124 161.085 37.2223C161.25 34.4099 163.734 32.0939 166.714 32.2593C167.376 32.2593 168.204 32.4248 168.866 32.7556C170.356 33.4173 171.68 34.4099 173.005 35.4025C182.11 42.3507 191.216 49.2988 200.321 56.0815C207.109 61.2099 214.228 66.0075 221.181 70.6396C224.327 72.6247 225.817 75.6025 227.307 78.7457C227.472 79.0766 227.472 79.5729 227.472 80.0692C226.81 82.2198 226.148 84.5359 224.161 86.0247C220.685 88.3408 217.208 90.6568 213.4 92.642C199.99 99.921 186.58 107.365 173.17 114.81C172.343 115.306 171.349 115.637 170.356 115.968C168.038 116.464 166.879 115.637 166.714 113.321C166.383 110.343 166.052 107.531 165.72 104.553C165.72 102.237 164.727 99.921 163.237 98.1013L155.787 98.9285C149.827 99.5902 143.867 100.417 137.907 100.914C129.133 101.741 120.358 102.568 111.418 103.23C106.617 103.561 101.816 103.726 97.0151 103.891C91.2207 104.057 85.4263 104.222 79.7974 104.222C76.3208 104.222 73.0097 103.891 69.533 103.726C68.3741 103.726 67.3808 102.899 66.8841 101.906C66.2219 100.583 65.5597 99.0939 65.063 97.7704C63.573 93.4692 62.083 89.168 60.593 84.8667C60.4275 84.205 60.0964 83.7087 59.7653 82.8815C59.4342 83.047 59.1031 83.3778 58.9375 83.7087C49.5009 97.7704 38.9054 111.17 27.151 123.412C44.5342 131.188 60.9242 141.444 75.6586 153.521C75.1619 151.536 74.8308 149.551 74.1686 147.731C73.3408 145.084 73.5063 142.272 74.6652 139.625C74.9963 138.467 75.9897 137.64 76.983 137.474C79.1352 136.978 81.1219 136.812 83.2741 136.647C87.5785 136.482 91.7174 136.482 95.8562 136.647C101.154 136.812 106.452 137.309 111.75 138.301C111.584 139.625 110.591 139.956 109.763 140.121C106.286 140.948 102.81 142.106 99.1674 142.603C94.3663 143.264 89.3996 143.595 84.5985 144.091C84.2674 144.091 83.9363 144.257 83.6052 144.257C83.7707 147.235 83.9363 150.047 83.9363 152.859C83.9363 154.348 83.7707 156.003 83.6052 157.491C82.943 160.469 82.2807 163.447 81.453 166.425C81.2874 167.086 81.1219 167.583 80.7907 168.079C80.2941 169.072 79.4663 169.733 78.3074 169.072C77.6452 168.906 76.8174 168.575 76.1552 168.244C67.7119 162.951 59.4342 157.491 50.9909 152.198C42.8787 147.235 34.7665 142.603 26.4887 137.805C24.6676 136.647 22.8465 135.489 21.0254 134.331C18.3766 132.677 17.0521 129.864 15.8932 127.052C15.231 125.728 15.5621 124.074 16.5555 123.082C23.6743 113.983 31.2898 105.215 39.0709 96.447C44.0376 90.8223 48.6731 84.8667 53.3086 79.0766C54.6331 77.0914 56.7853 75.768 59.2686 75.4371C61.4208 74.9408 63.573 75.9334 64.7319 77.9186C65.7253 79.4075 66.553 81.0618 67.2152 82.7161C68.7052 86.8519 70.0297 91.1531 71.5197 95.4544C70.8575 95.7852 71.1886 96.1161 71.3541 96.6124Z" fill="black"/>
<path d="M124.332 61.2098C124.497 64.6839 122.842 66.3382 119.862 66.0074L111.418 65.1802C110.26 65.0148 108.935 65.0148 108.438 63.6913C108.107 62.8642 109.101 61.5407 110.591 60.879C110.922 60.7135 111.253 60.5481 111.584 60.5481C115.061 59.8864 118.703 59.721 122.179 60.3827C122.842 60.5481 123.669 60.879 124.332 61.2098Z" fill="black"/>
<path d="M131.782 136.647C130.623 138.467 128.636 139.625 126.318 139.625C123.835 139.79 121.186 139.956 118.703 140.121C117.378 140.286 116.22 139.459 115.888 138.301C116.22 137.639 116.551 136.978 116.882 136.481C117.213 135.985 117.71 135.489 118.372 135.323C121.683 134.331 125.159 134.165 128.471 134.496C129.795 134.496 131.119 135.323 131.782 136.647Z" fill="black"/>
</svg>